<svg xmlns="http://www.w3.org/2000/svg" width="341" height="130" viewBox="0 0 341 130">
    <g fill="none" fill-rule="evenodd">
        <path fill="#424E5F" d="M76 111H58v-9h18z"/>
        <path fill="#12284C" d="M179.924 129.92c52.596-.061 112.076.514 112.076-1.469 0-1.982-35.106-2.394-107.531-2.394-72.422 0-136.79-.645-136.469 2.394 0 1.949 79.327 1.531 131.924 1.47z" opacity=".3"/>
        <path fill="#303947" d="M55.914 112.526a2.67 2.67 0 0 0 2.668 2.67h16.283a2.67 2.67 0 0 0 2.669-2.67v-.222a2.67 2.67 0 0 0-2.669-2.671H58.582a2.67 2.67 0 0 0-2.668 2.67v.223z"/>
        <path fill="#000" d="M145.483 103.452H49.119v-4.944h96.364z"/>
        <path fill="#6A7486" d="M38.618 108.397h9.438l4.448-12.98H38.618z"/>
        <path fill="#C1272D" d="M39.853 104.117c0 .657.532 1.19 1.19 1.19h5.651a1.19 1.19 0 0 0 1.19-1.19v-.093c0-.658-.533-1.19-1.19-1.19h-5.652c-.657 0-1.189.532-1.189 1.19v.093z"/>
        <path fill="#303947" d="M38 114.306c0 .492.398.89.89.89h9.34a.89.89 0 0 0 .889-.89v-6.255a.89.89 0 0 0-.89-.89h-9.34a.89.89 0 0 0-.89.89v6.255z"/>
        <path fill="#000" d="M98.536 113.342H269.47c8.352 0 14.232-3.078 14.232-11.435 0-8.357-5.88-11.435-14.232-11.435h-36.914l-5.423 4.41c-2.424 0-128.597-.087-128.597-.087v18.547z"/>
        <path fill="#E4A846" d="M280.989 28.663a4.893 4.893 0 0 1 4.672 3.443l6.881 22.143 7.467 22.853.075 34.385H272.73c0-14.216-13.045-14.834-13.045-14.834h-22.782V32.056a3.392 3.392 0 0 1 3.391-3.393h40.694z"/>
        <path fill="#12284C" d="M257.272 68.935c7.577 1.451 16.864 3.411 27.86 5.88 2.476.555 4.442-1.777 3.765-4.225-2.328-8.423-6.505-23.943-9.834-33.257a4.682 4.682 0 0 0-4.413-3.107h-30.438a2.367 2.367 0 0 0-2.366 2.368v13.68a19 19 0 0 0 15.426 18.661zM286.569 35.026s6.72 13.715 13.44 42.076c0 0-2.297.137-2.594-1.04-5.203-20.64-8.955-34.805-10.846-41.036"/>
        <path fill="#2C5068" d="M300.01 83.92l.037 11.46-6.192-4.164A1.918 1.918 0 0 1 293 89.62V83.92c0-1.059.861-1.92 1.92-1.92l5.09 1.92z"/>
        <path fill="#FFF" d="M294.92 82.598a1.323 1.323 0 0 0-1.322 1.322v5.699c0 .442.222.855.588 1.1l5.861 3.958-.038-10.159-5.09-1.92z"/>
        <path fill="#303947" d="M270.879 113.732c0 1.15.932 2.082 2.08 2.082h27.96c1.15 0 2.08-.933 2.08-2.082v-.162c0-1.15-.93-2.083-2.08-2.083h-27.96a2.082 2.082 0 0 0-2.08 2.083v.162z"/>
        <path fill="#12284C" d="M235.891 114.758c0 8.418 6.82 15.242 15.233 15.242s15.233-6.824 15.233-15.242c0-8.419-6.82-15.243-15.233-15.243s-15.233 6.824-15.233 15.243"/>
        <path fill="#C4C4C4" d="M241.228 114.758c0 5.468 4.432 9.902 9.897 9.902 5.464 0 9.895-4.434 9.895-9.902 0-5.47-4.431-9.903-9.895-9.903-5.465 0-9.897 4.434-9.897 9.903"/>
        <path fill="#12284C" d="M119.366 114.758c0 8.418 6.819 15.242 15.232 15.242s15.233-6.824 15.233-15.242c0-8.419-6.82-15.243-15.233-15.243s-15.232 6.824-15.232 15.243"/>
        <path fill="#C4C4C4" d="M124.703 114.758c0 5.468 4.43 9.902 9.895 9.902s9.895-4.434 9.895-9.902c0-5.47-4.43-9.903-9.895-9.903s-9.895 4.434-9.895 9.903"/>
        <path fill="#12284C" d="M82.303 114.758c0 8.418 6.819 15.242 15.232 15.242s15.233-6.824 15.233-15.242c0-8.419-6.82-15.243-15.233-15.243s-15.232 6.824-15.232 15.243"/>
        <path fill="#C4C4C4" d="M87.64 114.758c0 5.468 4.43 9.902 9.895 9.902s9.895-4.434 9.895-9.902c0-5.47-4.43-9.903-9.895-9.903s-9.895 4.434-9.895 9.903"/>
        <path fill="#303947" d="M187.855 115.196H165v-9.89h22.855zM219.855 115.196H197v-9.89h22.855z"/>
        <path fill="#8F99A9" d="M228.618 99.126h-190V10.03a3 3 0 0 1 3-3h187a3 3 0 0 1 3 3v86.096a3 3 0 0 1-3 3z"/>
        <g fill="#FFF" opacity=".101">
            <path d="M1 0H0v1h1zM341 0h-1v1h1z"/>
        </g>
    </g>
</svg>
